<svg width="158" height="40" viewBox="0 0 158 40" fill="none" xmlns="http://www.w3.org/2000/svg">
<path d="M37.6585 15.647C37.5676 15.5371 37.4556 15.4466 37.3291 15.3808C37.2027 15.315 37.0643 15.2753 36.9222 15.2641C36.8749 15.2602 36.8274 15.2596 36.7801 15.2622C36.5166 15.2796 36.2682 15.392 36.081 15.5785C35.8937 15.7649 35.7802 16.013 35.7613 16.2768C35.7542 16.3745 35.76 16.4727 35.7784 16.5689L30.2809 19.2454C30.2317 19.1665 30.1774 19.0909 30.1183 19.0191C29.9435 18.8079 29.7281 18.634 29.485 18.5076C29.2419 18.3813 28.976 18.305 28.703 18.2834C28.612 18.2763 28.5207 18.2751 28.4296 18.2797C28.1639 18.2944 27.9038 18.3615 27.6641 18.4773L24.7255 13.7632C25.077 13.4479 25.2926 13.0081 25.3266 12.5367C25.3606 12.0652 25.2104 11.599 24.9077 11.2363C24.7336 11.0266 24.513 10.8604 24.2635 10.7511C24.014 10.6417 23.7424 10.5923 23.4705 10.6066C23.089 10.6308 22.7254 10.7774 22.4336 11.0247C22.1418 11.272 21.9372 11.6069 21.8502 11.9797L16.1052 11.4664C16.069 11.2055 15.9455 10.9647 15.7551 10.7831C15.5647 10.6015 15.3184 10.4898 15.0565 10.4664C15.006 10.4623 14.9552 10.4617 14.9045 10.4645C14.6208 10.4895 14.3554 10.6154 14.1563 10.8195C13.9573 11.0236 13.8377 11.2923 13.8194 11.577C13.8005 11.8869 13.8993 12.1926 14.0958 12.4327C14.2924 12.6728 14.5723 12.8297 14.8794 12.872H14.8816L15.4262 16.344C15.0273 16.4438 14.6553 16.6304 14.3366 16.8904C14.0178 17.1505 13.7601 17.4776 13.5817 17.8486L8.97875 16.0213C9.00454 15.9132 9.02197 15.8034 9.03088 15.6927C9.07477 15.1466 8.90247 14.6051 8.55119 14.1852C8.38062 13.9789 8.17048 13.809 7.93319 13.6854C7.6959 13.5619 7.43629 13.4873 7.16971 13.466C6.62916 13.4335 6.09751 13.615 5.68934 13.9715C5.28116 14.3279 5.02915 14.8307 4.9876 15.3715C4.94605 15.9123 5.1183 16.4478 5.46722 16.8626C5.81614 17.2774 6.3138 17.5382 6.85295 17.589C7.24394 17.6206 7.6356 17.5364 7.97912 17.3467C8.32265 17.157 8.60285 16.8702 8.78484 16.5222L13.3904 18.3447C13.2828 18.7507 13.2648 19.1753 13.3379 19.589C13.4109 20.0026 13.5731 20.3953 13.8132 20.7398L8.62628 25.1092C8.33851 24.8582 7.96445 24.7293 7.58342 24.7499C7.28914 24.7598 7.00399 24.8547 6.76242 25.0233C6.52084 25.1919 6.33318 25.427 6.2221 25.7001C6.11101 25.9733 6.08126 26.2728 6.13644 26.5625C6.19161 26.8521 6.32935 27.1197 6.53302 27.3326C6.73669 27.5456 6.99757 27.695 7.28415 27.7627C7.57073 27.8304 7.87075 27.8135 8.14797 27.7142C8.4252 27.6148 8.66776 27.4371 8.84636 27.2026C9.02497 26.9682 9.13197 26.6869 9.15445 26.3929C9.17797 26.0929 9.11322 25.7926 8.96819 25.529L14.1642 21.1516C14.5516 21.531 15.0418 21.7878 15.5738 21.8902L15.0835 26.4991C14.659 26.5349 14.2613 26.7214 13.962 27.0251C13.6628 27.3288 13.4818 27.7296 13.4516 28.1552C13.4129 28.6313 13.5631 29.1036 13.8697 29.4695C14.0436 29.6796 14.2642 29.8459 14.5139 29.9552C14.7635 30.0644 15.0353 30.1135 15.3073 30.0986C15.7385 30.0706 16.1449 29.887 16.4513 29.5818C16.7576 29.2766 16.9432 28.8706 16.9735 28.4389C16.9735 28.4221 16.9735 28.4056 16.9735 28.3888L20.6014 28.1234C20.6643 28.4073 20.7946 28.6718 20.9812 28.8945C21.1552 29.1045 21.3758 29.2709 21.6254 29.3803C21.8751 29.4896 22.1468 29.5389 22.4189 29.5243C22.8501 29.4963 23.2566 29.3126 23.5629 29.0074C23.8693 28.7021 24.0548 28.296 24.085 27.8642C24.1234 27.3899 23.974 26.9195 23.6691 26.5546L27.3944 22.1611C27.6861 22.3596 28.0244 22.4787 28.376 22.5068C28.7165 22.5349 29.0585 22.4767 29.3707 22.3376C29.6828 22.1986 29.955 21.983 30.1621 21.7109L33.0297 23.4736C32.976 23.6106 32.9428 23.7547 32.9312 23.9015C32.9138 24.1873 32.9811 24.4719 33.1247 24.7195C33.2683 24.9671 33.4817 25.1667 33.7382 25.2932C33.9947 25.4197 34.2828 25.4675 34.5663 25.4305C34.8498 25.3935 35.116 25.2734 35.3316 25.0853C35.5472 24.8972 35.7024 24.6495 35.7779 24.3733C35.8533 24.0971 35.8456 23.8047 35.7557 23.5329C35.6657 23.2611 35.4976 23.022 35.2724 22.8456C35.0472 22.6692 34.7749 22.5634 34.4899 22.5415C34.4262 22.5367 34.3623 22.5358 34.2985 22.5389C33.9211 22.5604 33.5675 22.7302 33.3143 23.0114L30.4373 21.2428C30.6434 20.7665 30.67 20.2313 30.512 19.7368L36.004 17.0625C36.095 17.1763 36.2082 17.2703 36.3367 17.3387C36.4652 17.4071 36.6062 17.4486 36.7513 17.4605C36.8942 17.4715 37.0378 17.454 37.1738 17.4089C37.3099 17.3637 37.4356 17.2919 37.5436 17.1976C37.6517 17.1033 37.7399 16.9884 37.8031 16.8596C37.8663 16.7308 37.9033 16.5906 37.9119 16.4473C37.9355 16.1576 37.8445 15.8702 37.6585 15.647ZM23.2667 26.1983C23.0257 26.0433 22.7502 25.9503 22.4648 25.9274C22.2314 25.9091 21.9967 25.9376 21.7744 26.0111C21.5521 26.0846 21.3467 26.2017 21.17 26.3555C20.9933 26.5093 20.849 26.6968 20.7453 26.9071C20.6417 27.1173 20.5809 27.3461 20.5664 27.5801L16.9214 27.8463C16.8554 27.5825 16.7308 27.337 16.5569 27.1282C16.3154 26.8377 15.9865 26.6335 15.6193 26.5462L16.1089 21.942C16.1533 21.942 16.1982 21.942 16.2423 21.9395C16.8598 21.8998 17.4471 21.6577 17.9136 21.2506C18.3801 20.8434 18.6998 20.2937 18.8234 19.6865L26.4674 20.4608C26.4818 20.9561 26.6677 21.431 26.9934 21.804L23.2667 26.1983ZM27.211 18.7719C26.8642 19.0694 26.6221 19.4708 26.5207 19.9168L18.8835 19.1432C18.9028 18.4226 18.6475 17.7217 18.1694 17.1828C17.6914 16.644 17.0264 16.3077 16.3097 16.2421C16.1916 16.2329 16.073 16.2312 15.9547 16.237L15.4079 12.7274C15.5609 12.6615 15.6981 12.5637 15.8104 12.4405C15.9227 12.3173 16.0074 12.1715 16.0589 12.0129L21.805 12.5262C21.8276 12.9136 21.9741 13.2834 22.2227 13.581C22.3715 13.7608 22.5548 13.909 22.7617 14.0167C22.9686 14.1243 23.195 14.1893 23.4275 14.2079C23.5049 14.2139 23.5827 14.2149 23.6604 14.2108C23.8734 14.1993 24.0824 14.1481 24.2768 14.06L27.211 18.7719ZM30.878 11.409C30.7183 11.2195 30.6398 10.9746 30.6593 10.7274C30.6766 10.5525 30.7437 10.3862 30.8525 10.2482C30.9613 10.1103 31.1074 10.0065 31.2733 9.94919C31.4392 9.89186 31.618 9.88337 31.7886 9.92475C31.9592 9.96613 32.1144 10.0556 32.2357 10.1827C32.3571 10.3097 32.4395 10.4689 32.4733 10.6414C32.5071 10.8139 32.4907 10.9925 32.4262 11.156C32.3618 11.3195 32.2518 11.4611 32.1095 11.5639C31.9671 11.6667 31.7983 11.7265 31.623 11.7362C31.4816 11.7435 31.3405 11.7176 31.2109 11.6606C31.0812 11.6035 30.9667 11.5169 30.8765 11.4076L30.878 11.409ZM2.98808 21.0745C2.97624 21.2731 2.92502 21.4672 2.83741 21.6457C2.74981 21.8242 2.62758 21.9834 2.47785 22.114C2.32813 22.2446 2.15392 22.344 1.9654 22.4065C1.77688 22.4689 1.57783 22.4931 1.37988 22.4776C1.18299 22.462 0.991227 22.407 0.815924 22.3159C0.640621 22.2248 0.485337 22.0994 0.359256 21.9471C0.0998597 21.6377 -0.0274284 21.2385 0.00495494 20.8358C0.030572 20.4702 0.187682 20.1263 0.447145 19.8679C0.706609 19.6095 1.05082 19.4541 1.41596 19.4305C1.48155 19.4269 1.54731 19.4276 1.6128 19.4327C2.01191 19.4691 2.38046 19.6621 2.63804 19.9696C2.89562 20.2771 3.02132 20.6742 2.98772 21.0742L2.98808 21.0745Z" fill="#002648"/>
<path d="M53.0671 28.797V11.2017H60.2252C66.2753 11.2017 69.3004 13.9744 69.3004 19.5198C69.3004 25.7052 66.2753 28.7976 60.2252 28.797H53.0671ZM60.2252 25.9669C64.0151 25.9669 65.9101 23.8179 65.9101 19.5198C65.9101 15.8611 64.0151 14.0318 60.2252 14.0318H56.4534V25.9669H60.2252Z" fill="#002648"/>
<path d="M76.9281 28.7977H73.4505L81.2091 11.2024H84.8524L92.7783 28.7977H89.135L87.0514 23.9992H80.9792L82.1418 21.1692H85.8238L82.9475 14.5613L76.9281 28.7977Z" fill="#002648"/>
<path d="M112.314 28.0709C110.582 28.6716 108.768 28.963 106.946 28.9334C100.384 28.9334 97.1028 25.8735 97.1028 19.7537C97.1028 13.9624 100.384 11.0667 106.946 11.0667C108.768 11.0373 110.582 11.3288 112.314 11.9293V14.8867C110.683 14.2188 108.949 13.8845 107.201 13.9012C102.813 13.9012 100.618 15.8523 100.618 19.7546C100.618 23.9853 102.813 26.1007 107.201 26.1007C108.949 26.1171 110.683 25.7824 112.314 25.1143V28.0709Z" fill="#002648"/>
<path d="M117.592 20.0242C117.592 14.0514 120.652 11.0649 126.77 11.0649C132.795 11.0649 135.808 14.0514 135.808 20.0242C135.808 25.9637 132.795 28.9334 126.77 28.9334C120.924 28.9334 117.865 25.9637 117.592 20.0242ZM126.77 26.0998C130.45 26.0998 132.291 24.0503 132.291 19.9513C132.291 15.9179 130.45 13.9012 126.77 13.9012C122.995 13.9012 121.108 15.9179 121.108 19.9513C121.108 24.0497 122.995 26.099 126.77 26.099V26.0998Z" fill="#002648"/>
<path d="M141.698 28.7977V11.2024H145.085L154.737 24.0265V11.2024H157.996V28.7977H154.609L144.958 15.7058V28.7977H141.698Z" fill="#002648"/>
</svg>
